<?xml version="1.0" encoding="UTF-8"?>
<svg version="1.1" xmlns="http://www.w3.org/2000/svg" width="512" height="512">
<path d="M0 0 C7.26877281 7.08008563 9.07006671 21.75418603 11.91641235 31.2749939 C12.76687815 34.11894032 13.62149231 36.96161035 14.47729492 39.80395508 C15.64924571 43.69648623 16.82021181 47.5893107 17.99023438 51.48242188 C20.48004282 59.76320444 22.98116979 68.04049742 25.5 76.3125 C25.72819427 77.06232147 25.95638855 77.81214294 26.1914978 78.58468628 C29.12596761 88.21107844 32.17673315 97.78550916 35.49169922 107.28881836 C37.85189071 114.20537551 39.82903008 121.18599489 41.75390625 128.234375 C42.59683751 131.26656382 43.44235176 134.29802276 44.28839111 137.3293457 C44.84262698 139.34702791 45.38363368 141.3683944 45.91082764 143.39331055 C46.65689564 146.25651866 47.44706553 149.10431517 48.24609375 151.953125 C48.45859268 152.81871033 48.67109161 153.68429565 48.89002991 154.57611084 C49.90031676 158.04647127 50.62112778 160.39003656 53.66590881 162.48855591 C55.9764199 163.5383311 58.26850466 164.36150205 60.6875 165.125 C61.84967041 165.57665527 63.01184082 166.02831055 64.20922852 166.49365234 C65.31709717 166.89535645 66.42496582 167.29706055 67.56640625 167.7109375 C68.17716507 167.93352737 68.78792389 168.15611725 69.41719055 168.38545227 C71.3604524 169.09311071 73.30521139 169.79654981 75.25 170.5 C77.2591044 171.230714 79.26778465 171.96258515 81.27642822 172.69456482 C82.59185462 173.17388239 83.90740492 173.65286007 85.2230835 174.13148499 C92.39798698 176.74294642 99.54680622 179.4215744 106.6875 182.125 C106.6875 182.785 106.6875 183.445 106.6875 184.125 C107.49856201 184.22683594 108.30962402 184.32867187 109.14526367 184.43359375 C113.41795848 185.2675776 117.29458718 186.66473174 121.36328125 188.1875 C122.19801468 188.49482559 123.03274811 188.80215118 123.89277649 189.11878967 C126.5971473 190.11563794 129.29868771 191.11989595 132 192.125 C135.71156112 193.50053467 139.42403297 194.87359794 143.13671875 196.24609375 C144.04925415 196.58402451 144.96178955 196.92195526 145.90197754 197.27012634 C151.15164714 199.20878344 156.41429792 201.0923458 161.70703125 202.91015625 C162.84551514 203.30396484 163.98399902 203.69777344 165.15698242 204.10351562 C167.18795463 204.80119583 169.22304072 205.48707054 171.26293945 206.15820312 C177.35408313 208.26694994 183.65777753 211.06555505 186.6875 217.125 C188.04256268 229.38917485 188.04256268 229.38917485 184.25 234.1875 C178.05205555 239.78903638 169.32338284 242.085322 161.58203125 244.84765625 C160.63185623 245.18984192 159.68168121 245.53202759 158.70271301 245.88458252 C156.67946066 246.61285413 154.65567956 247.33965821 152.63140869 248.06509399 C148.40724877 249.57918012 144.18596897 251.10121944 139.96447754 252.62272644 C136.82213568 253.75511428 133.67939682 254.88639506 130.53662109 256.01757812 C123.4114048 258.58350725 116.28988949 261.15937119 109.17636108 263.75753784 C107.37212395 264.41574836 105.56657619 265.07036288 103.76098633 265.72485352 C99.24181639 267.37725796 94.7906551 269.03626396 90.44140625 271.09765625 C86.34588326 272.98027569 82.11563212 274.23959173 77.80078125 275.5078125 C71.80885145 277.30559121 65.90304609 279.24939372 60.078125 281.53515625 C59.40239944 281.77964508 58.72667389 282.02413391 58.0304718 282.27603149 C52.66487517 284.465518 50.42071907 287.52947554 48.25 292.6875 C47.59196581 295.03473284 47.59196581 295.03473284 47.5078125 297.28125 C46.66498299 304.55230581 44.40090138 311.39186433 42.30856323 318.38082886 C41.21910309 322.05719141 40.18787625 325.74956996 39.15234375 329.44140625 C37.47658505 335.37153943 35.7865544 341.29742473 34.06640625 347.21484375 C33.77503029 348.2294442 33.77503029 348.2294442 33.47776794 349.26454163 C32.29369803 353.31344526 30.91783109 357.24223385 29.41038513 361.18144226 C28.30029804 364.1660359 27.37795228 367.19968943 26.453125 370.24609375 C26.25441299 370.89929596 26.05570099 371.55249817 25.85096741 372.22549438 C25.21002258 374.33689894 24.57344299 376.44958398 23.9375 378.5625 C23.71718109 379.29153534 23.49686218 380.02057068 23.26986694 380.771698 C20.41667713 390.21722472 17.64024431 399.67986463 15 409.1875 C14.72534912 410.17524414 14.45069824 411.16298828 14.16772461 412.18066406 C13.03495046 416.26066482 11.90384079 420.34111283 10.77734375 424.42285156 C9.86221265 427.72249269 8.93258813 431.01775605 8 434.3125 C7.72647705 435.31095947 7.4529541 436.30941895 7.17114258 437.33813477 C5.39771019 443.55023959 3.44771045 448.16032951 -1 452.9375 C-5.63518794 455.31773165 -10.52445926 455.50323939 -15.5625 454.4375 C-20.83954492 451.91891038 -23.24952374 449.85230161 -25.21020508 444.31152344 C-27.48855521 437.80286236 -29.42320959 431.20507874 -31.32421875 424.578125 C-31.70017245 423.27795946 -32.07646783 421.97789267 -32.45307922 420.67791748 C-33.44092299 417.26482444 -34.42431963 413.85046651 -35.40667725 410.43579102 C-36.37467462 407.07364069 -37.34658795 403.71262357 -38.31835938 400.3515625 C-39.47722807 396.34332318 -40.63524574 392.33484924 -41.78878784 388.32507324 C-43.59247879 382.05823182 -45.40516194 375.7944294 -47.25102901 369.53985977 C-48.09822961 366.66918211 -48.94185412 363.79745772 -49.785532 360.9257431 C-50.18813433 359.55969116 -50.59266195 358.19420501 -50.99921227 356.82932281 C-51.56129983 354.94199344 -52.11638435 353.05258267 -52.67114258 351.16308594 C-52.98892166 350.0905658 -53.30670074 349.01804565 -53.6341095 347.9130249 C-54.3125 345.125 -54.3125 345.125 -54.3125 341.125 C-54.9725 341.125 -55.6325 341.125 -56.3125 341.125 C-56.71976318 339.73716309 -56.71976318 339.73716309 -57.13525391 338.32128906 C-63.47231812 316.71344746 -63.47231812 316.71344746 -69.875 295.125 C-70.1136377 294.32094727 -70.35227539 293.51689453 -70.59814453 292.68847656 C-71.73619191 288.82325425 -71.73619191 288.82325425 -73.3125 285.125 C-75.11746456 284.31335167 -76.96409804 283.59370613 -78.82421875 282.91796875 C-80.5405249 282.28882568 -80.5405249 282.28882568 -82.29150391 281.64697266 C-84.12720947 280.98640869 -84.12720947 280.98640869 -86 280.3125 C-87.85117432 279.63646729 -87.85117432 279.63646729 -89.73974609 278.94677734 C-96.9146041 276.33180139 -104.09935661 273.74307374 -111.3203125 271.2578125 C-113.65230593 270.37494292 -115.85516822 269.42371289 -118.11328125 268.37890625 C-124.5956214 265.46333934 -131.31604471 263.16418542 -138.00698853 260.78100586 C-142.03325955 259.34681382 -146.05575444 257.90212003 -150.078125 256.45703125 C-150.87426712 256.17119171 -151.67040924 255.88535217 -152.49067688 255.59085083 C-160.19766181 252.81794682 -167.86395425 249.94280997 -175.51586914 247.02124023 C-180.2682362 245.2182986 -185.01900402 243.56085137 -189.88305664 242.0871582 C-196.64152908 240.0304549 -201.67816577 237.56828606 -206.3125 232.125 C-207.6926262 229.36474761 -207.63301879 227.0180051 -207.75 223.9375 C-207.84087891 222.27654297 -207.84087891 222.27654297 -207.93359375 220.58203125 C-207.0810889 215.83695706 -204.86329473 213.31116415 -201.3125 210.125 C-198.571178 208.57201858 -195.74679814 207.61755598 -192.75 206.66796875 C-191.04927664 206.08571493 -189.34876323 205.50284758 -187.6484375 204.91943359 C-186.77026367 204.62631287 -185.89208984 204.33319214 -184.98730469 204.03118896 C-180.58520352 202.53981447 -176.23374316 200.91355485 -171.875 199.30078125 C-170.11877079 198.65743496 -168.36225924 198.01485889 -166.60546875 197.37304688 C-162.16308789 195.74855737 -157.72086914 194.12362569 -153.27880859 192.4982605 C-151.57496139 191.87527029 -149.8708667 191.25295645 -148.16650391 190.63137817 C-144.68022785 189.35976127 -141.19736592 188.08182472 -137.72265625 186.77880859 C-136.74167969 186.41223145 -135.76070313 186.0456543 -134.75 185.66796875 C-133.54150391 185.21006958 -133.54150391 185.21006958 -132.30859375 184.74291992 C-130.3125 184.125 -130.3125 184.125 -127.3125 184.125 C-127.3125 183.465 -127.3125 182.805 -127.3125 182.125 C-126.52939453 181.83890869 -125.74628906 181.55281738 -124.93945312 181.25805664 C-123.28333008 180.65272095 -123.28333008 180.65272095 -121.59375 180.03515625 C-120.36180908 179.58503174 -119.12986816 179.13490723 -117.8605957 178.67114258 C-115.14611298 177.6778393 -112.43395028 176.67851259 -109.72338867 175.67456055 C-103.20020562 173.26163114 -96.67529567 170.88893255 -90.08203125 168.671875 C-88.98761719 168.29281006 -87.89320313 167.91374512 -86.765625 167.52319336 C-84.71539382 166.81444195 -82.6568451 166.12918877 -80.58984375 165.47094727 C-79.66945313 165.14666748 -78.7490625 164.8223877 -77.80078125 164.48828125 C-77.00196533 164.22313721 -76.20314941 163.95799316 -75.38012695 163.68481445 C-72.15416596 161.25115466 -71.43645455 157.85096369 -70.3125 154.125 C-70.07232651 153.3638942 -69.83215302 152.60278839 -69.58470154 151.81861877 C-68.80681735 149.31484848 -68.05901751 146.80351023 -67.31640625 144.2890625 C-66.75204727 142.40101352 -66.18759113 140.51299359 -65.62304688 138.625 C-64.74826698 135.68766116 -63.87496871 132.74989448 -63.00366211 129.81152344 C-62.15358402 126.94865814 -61.29778208 124.08754922 -60.44140625 121.2265625 C-60.18710342 120.36269928 -59.9328006 119.49883606 -59.67079163 118.60879517 C-58.10924243 113.40342174 -56.26653836 108.39805854 -54.20704651 103.36975098 C-53.12317466 100.64991207 -52.26684306 97.90936636 -51.48046875 95.08984375 C-51.16432617 93.97488525 -50.84818359 92.85992676 -50.52246094 91.71118164 C-50.18504883 90.5071167 -49.84763672 89.30305176 -49.5 88.0625 C-45.37418555 73.54691291 -40.99001342 59.11355855 -36.5625 44.6875 C-36.24066742 43.63787079 -35.91883484 42.58824158 -35.58724976 41.50680542 C-34.05450317 36.50929639 -32.51721553 31.51328614 -30.97070312 26.52001953 C-29.91684186 23.11157378 -28.88821839 19.69769909 -27.88867188 16.27294922 C-27.56101837 15.17043068 -27.56101837 15.17043068 -27.22674561 14.04563904 C-26.65766604 12.1276046 -26.09932719 10.2063921 -25.54199219 8.28491211 C-23.726965 3.62011925 -21.45912722 0.88941815 -17.3125 -1.875 C-11.3553246 -3.80232145 -5.36988903 -3.03955983 0 0 Z " fill="#FFAB32" transform="translate(311.3125,29.875)"/>
<path d="M0 0 C5.33652164 4.66533025 6.92784591 12.61677895 8.5859375 19.23046875 C8.81731918 20.11732864 9.04870087 21.00418854 9.28709412 21.91792297 C10.01888291 24.72441897 10.73923411 27.53364542 11.45703125 30.34375 C12.17877519 33.16445544 12.90326239 35.98427813 13.63768005 38.80171204 C14.09265694 40.5471605 14.54050008 42.29448896 14.9801178 44.04386902 C16.56612069 50.25511708 16.56612069 50.25511708 19.89453125 55.65625 C22.80539272 57.25935168 22.80539272 57.25935168 26.25 58.375 C26.87046707 58.60022339 27.49093414 58.82544678 28.13020325 59.05749512 C30.10872076 59.77349782 32.09426444 60.46638509 34.08203125 61.15625 C55.389446 68.65121509 55.389446 68.65121509 59.45703125 75.53125 C61.15920426 79.58150989 61.21253105 82.392133 59.89453125 86.65625 C56.80071234 92.40261026 53.17738626 95.13586679 47.26953125 97.65625 C46.53968018 97.99180908 45.8098291 98.32736816 45.05786133 98.6730957 C41.00305075 100.48967486 36.95331078 101.99234723 32.6953125 103.26171875 C31.84211426 103.52919922 30.98891602 103.79667969 30.10986328 104.07226562 C28.46723176 104.57359029 26.80985823 105.02965208 25.14013672 105.43164062 C22.59488538 106.21312966 20.93994864 106.94062358 18.89453125 108.65625 C16.77639865 112.77820844 15.87747364 117.15905309 14.89453125 121.65625 C14.54474877 123.12294893 14.19149688 124.58882379 13.83520508 126.05395508 C12.47940282 131.67883501 11.16637687 137.31366236 9.8972168 142.95874023 C5.53119929 162.29232714 5.53119929 162.29232714 -1.23046875 168.65625 C-6.68175784 170.55235055 -12.47452302 170.45697261 -17.98046875 168.78125 C-23.81015722 162.95156153 -25.75739534 154.93749299 -27.98046875 147.21875 C-28.242229 146.33558105 -28.50398926 145.45241211 -28.77368164 144.54248047 C-30.28489681 139.24884906 -31.39420781 134.05335069 -32.19921875 128.60546875 C-33.80411952 116.25960808 -33.80411952 116.25960808 -40.76611328 106.58642578 C-47.49655265 103.04292676 -54.65858595 101.07193119 -62.10546875 99.65625 C-62.10546875 98.99625 -62.10546875 98.33625 -62.10546875 97.65625 C-62.97558594 97.52669922 -62.97558594 97.52669922 -63.86328125 97.39453125 C-69.70140418 96.34443983 -72.94531633 94.91786955 -77.10546875 90.65625 C-79.82997716 86.1996658 -79.7634682 81.73568482 -79.10546875 76.65625 C-75.65709138 69.88265159 -71.25765418 67.51679325 -64.29296875 64.9921875 C-63.31686646 64.63587753 -63.31686646 64.63587753 -62.32104492 64.27236938 C-60.95053033 63.77346444 -59.57883779 63.27778485 -58.20605469 62.78515625 C-56.11007581 62.03290349 -54.01769846 61.27127876 -51.92578125 60.5078125 C-40.86515723 56.49238419 -40.86515723 56.49238419 -37.10546875 55.65625 C-37.0067749 55.02605957 -36.90808105 54.39586914 -36.80639648 53.74658203 C-35.47699633 45.83297615 -33.41600166 38.22818469 -31.16796875 30.53125 C-30.82056641 29.32082031 -30.47316406 28.11039062 -30.11523438 26.86328125 C-23.22723472 3.02120333 -23.22723472 3.02120333 -16.10546875 -1.34375 C-10.14321861 -3.33116671 -5.57391994 -2.45207069 0 0 Z " fill="#FFCC4C" transform="translate(154.10546875,328.34375)"/>
<path d="M0 0 C5.50075382 3.70981071 7.52424823 8.42541788 9.5 14.5625 C10.02258579 16.07366321 10.54739604 17.58405865 11.07421875 19.09375 C11.88754281 21.45087 12.68641968 23.80913066 13.44775391 26.18359375 C16.26274966 35.68830909 16.26274966 35.68830909 22.57226562 42.90258789 C25.59782631 44.17192422 28.49800193 45.0607683 31.6875 45.8125 C32.8734375 46.26496094 34.059375 46.71742187 35.28125 47.18359375 C36.2403125 47.53550781 37.199375 47.88742188 38.1875 48.25 C58.10965302 55.91236655 58.10965302 55.91236655 61.6875 62.8125 C62.55030582 67.68361631 62.68062538 72.26878735 60.859375 76.93359375 C56.32806019 83.37207586 47.79744335 85.32946777 40.6875 87.8125 C38.12168946 88.7113604 35.55723785 89.61320374 32.99682617 90.52734375 C31.31818093 91.12430926 29.63479314 91.70813722 27.9465332 92.27734375 C27.175271 92.54933594 26.40400879 92.82132812 25.609375 93.1015625 C24.92456055 93.33568848 24.23974609 93.56981445 23.53417969 93.81103516 C18.86531065 96.34298925 17.61942679 101.24801612 15.98046875 105.9921875 C15.47128183 107.41036416 14.96149728 108.82832637 14.45117188 110.24609375 C13.66107525 112.46424408 12.87625948 114.68388113 12.10229492 116.90771484 C11.34758281 119.06657039 10.57178531 121.21692997 9.79296875 123.3671875 C9.57086227 124.02363251 9.3487558 124.68007751 9.11991882 125.35641479 C7.01461946 131.09557722 3.7064973 134.59856865 -1.1875 138.1875 C-6.18214924 139.65651448 -9.94863217 139.50780517 -14.5 137.1875 C-20.00608962 132.53791321 -22.97778778 128.12226037 -25.28515625 121.33203125 C-25.53494736 120.63736252 -25.78473846 119.94269379 -26.042099 119.22697449 C-27.09968942 116.28487953 -28.12789047 113.33275434 -29.15844727 110.38110352 C-29.91947508 108.21506469 -30.69560266 106.05486194 -31.47265625 103.89453125 C-31.69881119 103.2288765 -31.92496613 102.56322174 -32.15797424 101.87739563 C-33.54713084 98.0224681 -34.67946216 95.78528076 -38.3125 93.8125 C-40.38803311 92.96571432 -42.4943244 92.19261177 -44.6171875 91.47265625 C-45.84050781 91.04919922 -47.06382813 90.62574219 -48.32421875 90.18945312 C-50.25422802 89.53117248 -52.18518768 88.87578277 -54.11669922 88.22192383 C-55.99431256 87.58349691 -57.86829325 86.93441824 -59.7421875 86.28515625 C-60.85835449 85.90625244 -61.97452148 85.52734863 -63.12451172 85.13696289 C-68.50380165 82.90211468 -73.49840951 80.00774399 -76.3125 74.8125 C-77.11368244 69.9639649 -77.38707244 65.21832414 -75.34765625 60.65234375 C-69.38994586 52.79507353 -58.1481648 50.27126106 -49.23486328 47.04272461 C-47.93276326 46.56855993 -46.63819691 46.07324751 -45.3515625 45.55859375 C-43.3125 44.8125 -43.3125 44.8125 -41.0546875 44.33203125 C-38.20732914 43.53361658 -36.5755161 42.74954931 -34.3125 40.8125 C-31.38757221 35.42234209 -29.49596767 29.74267405 -27.5625 23.9375 C-26.75811783 21.59682036 -25.94415202 19.26022062 -25.11639404 16.92770386 C-24.60576544 15.48159495 -24.10939131 14.03034104 -23.63018799 12.57351685 C-21.75214385 7.14429623 -19.18689716 2.72325827 -14.2734375 -0.54296875 C-9.45132539 -2.12792592 -4.71500035 -1.69028315 0 0 Z " fill="#FFCC4C" transform="translate(90.3125,33.1875)"/>
</svg>
