<?xml version="1.0" encoding="UTF-8"?>
<svg xmlns="http://www.w3.org/2000/svg" xmlns:xlink="http://www.w3.org/1999/xlink" width="24px" height="24px" viewBox="0 0 24 24" version="1.1">
<g id="surface1">
<path style=" stroke:none;fill-rule:evenodd;fill:rgb(0%,0%,0%);fill-opacity:1;" d="M 12 0 C 18.628906 0 24 5.507812 24 12.304688 C 24 17.738281 20.566406 22.347656 15.800781 23.976562 C 15.191406 24.097656 14.976562 23.714844 14.976562 23.386719 C 14.976562 22.980469 14.992188 21.65625 14.992188 20.011719 C 14.992188 18.863281 14.605469 18.113281 14.175781 17.734375 C 16.847656 17.429688 19.65625 16.386719 19.65625 11.660156 C 19.65625 10.316406 19.191406 9.21875 18.421875 8.359375 C 18.542969 8.046875 18.957031 6.796875 18.300781 5.101562 C 18.300781 5.101562 17.296875 4.773438 15.007812 6.363281 C 14.046875 6.089844 13.019531 5.953125 12 5.949219 C 10.980469 5.953125 9.953125 6.089844 8.996094 6.363281 C 6.703125 4.773438 5.695312 5.101562 5.695312 5.101562 C 5.042969 6.796875 5.457031 8.046875 5.578125 8.359375 C 4.8125 9.21875 4.34375 10.316406 4.34375 11.660156 C 4.34375 16.375 7.144531 17.429688 9.808594 17.742188 C 9.464844 18.050781 9.15625 18.589844 9.046875 19.386719 C 8.363281 19.703125 6.625 20.246094 5.554688 18.363281 C 5.554688 18.363281 4.921875 17.183594 3.714844 17.097656 C 3.714844 17.097656 2.546875 17.082031 3.636719 17.84375 C 3.636719 17.84375 4.421875 18.222656 4.964844 19.644531 C 4.964844 19.644531 5.671875 21.839844 9.007812 21.097656 C 9.015625 22.125 9.027344 23.09375 9.027344 23.386719 C 9.027344 23.710938 8.804688 24.09375 8.207031 23.980469 C 3.4375 22.351562 0 17.738281 0 12.304688 C 0 5.507812 5.375 0 12 0 "/>
</g>
</svg>
