<?xml version="1.0" encoding="UTF-8"?>
<svg xmlns="http://www.w3.org/2000/svg" xmlns:xlink="http://www.w3.org/1999/xlink" width="24px" height="24px" viewBox="0 0 24 24" version="1.1">
<g id="surface1">
<path style=" stroke:none;fill-rule:nonzero;fill:rgb(5.882353%,5.882353%,5.882353%);fill-opacity:1;" d="M 6.5 8 C 7.039062 8.007812 7.542969 7.722656 7.816406 7.253906 C 8.085938 6.789062 8.085938 6.210938 7.816406 5.742188 C 7.542969 5.277344 7.039062 4.992188 6.5 5 C 5.679688 5.011719 5.019531 5.679688 5.019531 6.5 C 5.019531 7.320312 5.679688 7.988281 6.5 8 Z M 5 10 C 5 9.449219 5.449219 9 6 9 L 7 9 C 7.550781 9 8 9.449219 8 10 L 8 18 C 8 18.550781 7.550781 19 7 19 L 6 19 C 5.449219 19 5 18.550781 5 18 Z M 11 19 L 12 19 C 12.550781 19 13 18.550781 13 18 L 13 13.5 C 13 12 16 11 16 13 L 16 18 C 16 18.550781 16.449219 19 17 19 L 18 19 C 18.550781 19 19 18.550781 19 18 L 19 12 C 19 10 17.5 9 15.5 9 C 13.5 9 13 10.5 13 10.5 L 13 10 C 13 9.449219 12.550781 9 12 9 L 11 9 C 10.449219 9 10 9.449219 10 10 L 10 18 C 10 18.550781 10.449219 19 11 19 Z M 11 19 "/>
<path style=" stroke:none;fill-rule:evenodd;fill:rgb(5.882353%,5.882353%,5.882353%);fill-opacity:1;" d="M 20 1 C 21.65625 1 23 2.34375 23 4 L 23 20 C 23 21.65625 21.65625 23 20 23 L 4 23 C 2.34375 23 1 21.65625 1 20 L 1 4 C 1 2.34375 2.34375 1 4 1 Z M 20 3 C 20.265625 3 20.519531 3.105469 20.707031 3.292969 C 20.894531 3.480469 21 3.734375 21 4 L 21 20 C 21 20.265625 20.894531 20.519531 20.707031 20.707031 C 20.519531 20.894531 20.265625 21 20 21 L 4 21 C 3.734375 21 3.480469 20.894531 3.292969 20.707031 C 3.105469 20.519531 3 20.265625 3 20 L 3 4 C 3 3.734375 3.105469 3.480469 3.292969 3.292969 C 3.480469 3.105469 3.734375 3 4 3 Z M 20 3 "/>
</g>
</svg>
